<?xml version="1.0" encoding="utf-8"?>
<!-- Generator: Adobe Illustrator 22.0.1, SVG Export Plug-In . SVG Version: 6.00 Build 0)  -->
<svg version="1.1" id="Layer_1" xmlns="http://www.w3.org/2000/svg" xmlns:xlink="http://www.w3.org/1999/xlink" x="0px" y="0px"
	 viewBox="0 0 987.6 535.7" style="enable-background:new 0 0 987.6 535.7;" xml:space="preserve">
<style type="text/css">
	.st0{opacity:0.3;fill:url(#SVGID_1_);}
	.st1{clip-path:url(#SVGID_3_);fill:url(#SVGID_4_);}
	.st2{filter:url(#Adobe_OpacityMaskFilter);}
	.st3{mask:url(#SVGID_5_);}
	.st4{fill:url(#SVGID_6_);}
	.st5{fill:url(#SVGID_7_);}
	.st6{fill:#ECF3DC;}
	.st7{opacity:0.3;fill:#7B7B7B;}
	.st8{fill:url(#SVGID_8_);}
	.st9{fill:#D5D5D5;}
	.st10{fill:url(#SVGID_9_);}
	.st11{fill:#F06460;}
	.st12{clip-path:url(#SVGID_11_);fill:url(#SVGID_12_);}
	.st13{clip-path:url(#SVGID_11_);fill:url(#SVGID_13_);}
	.st14{clip-path:url(#SVGID_11_);fill:url(#SVGID_14_);}
	.st15{clip-path:url(#SVGID_11_);fill:url(#SVGID_15_);}
	.st16{clip-path:url(#SVGID_11_);}
	.st17{clip-path:url(#SVGID_11_);fill:#FFFFFF;}
	.st18{fill:#AA2A2A;}
	.st19{fill:#603813;}
	.st20{fill:#DAA375;}
	.st21{fill:#BF8C5F;}
	.st22{fill:#8D735E;}
	.st23{fill:#735D4F;}
	.st24{fill:#7E6454;}
	.st25{fill:#D0B089;}
	.st26{fill:#222222;}
	.st27{fill:url(#SVGID_16_);}
	.st28{fill:url(#SVGID_17_);}
	.st29{fill:#805C32;}
	.st30{fill:#9C9E9F;}
	.st31{fill:none;stroke:#5F6060;stroke-width:0.35;stroke-miterlimit:10;}
	.st32{fill:url(#SVGID_18_);}
	.st33{fill:#8B8B8B;}
	.st34{fill:#DA4826;}
	.st35{fill:#E5E3DC;}
	.st36{fill:#DBDADA;}
	.st37{fill:#5E5F5E;}
	.st38{fill:#826633;}
	.st39{fill:#979797;}
	.st40{fill:#5A9140;}
	.st41{fill:#E6BC30;}
	.st42{fill:#E77834;}
</style>
<linearGradient id="SVGID_1_" gradientUnits="userSpaceOnUse" x1="7.3588" y1="391.6056" x2="228.4509" y2="391.6056">
	<stop  offset="0" style="stop-color:#000000"/>
	<stop  offset="1" style="stop-color:#FFFFFF"/>
</linearGradient>
<path class="st0" d="M227.2,339.8c-1.6-6.2-6-11.2-10.7-15.3c-3.9-3.4-8.2-4.5-13-2.1C203.1,322.7,12.1,421,12.1,421
	c-5.4,2.1-6.4,12.9-2.1,24.1c4.3,11.3,12.2,18.7,17.6,16.6c0.4-0.1,0.7-0.3,1-0.6c3-1.6,6.1-3.2,9.1-4.8
	c38.8-20.5,77.6-41.1,116.4-61.6c14.1-7.5,73.3-39.8,72.1-37.9C229.4,352,228.6,345.1,227.2,339.8z"/>
<g>
	<defs>
		<path id="SVGID_2_" d="M794.8,353.9c-15.8,8.1-46.2,9-47.4,24.2s23.6,14.1,36.3,13.1c39.1-2.9,132.6-1.3,119,30.1
			c-14.5,33.5-250.4,50.4-377.3,45.4c-87.2-3.4-71.1,19.1-35.1,28.5c10.7,2.8,32.3,8,22.3,23.2c-10,15.2-145.6,14.9-218.3,0.9
			c-154.7-29.7-106.3-99,27.7-131.9c9.9-2.4,26.3-7.8,24-22.7s-45.3-27.2-45.3-38.9s18.2-16.7,28.3-18.4
			c131.1-22.1,263.3-26.5,394.8-13c23.4,2.4,46.8,5.4,69.6,14.8c7.7,3.2,16.9,11,16.2,24.2C809,345,801.3,350.6,794.8,353.9z"/>
	</defs>
	<clipPath id="SVGID_3_">
		<use xlink:href="#SVGID_2_"  style="overflow:visible;"/>
	</clipPath>
	<linearGradient id="SVGID_4_" gradientUnits="userSpaceOnUse" x1="533.4149" y1="259.152" x2="539.1732" y2="652.1619">
		<stop  offset="0.1975" style="stop-color:#68CCEB"/>
		<stop  offset="0.9657" style="stop-color:#0F7ABC"/>
	</linearGradient>
	<polygon class="st1" points="99.8,664.5 214.9,245.9 973.1,274.2 866.6,660.6 	"/>
</g>
<g id="fish_2_">
	<g>
		<defs>
			<filter id="Adobe_OpacityMaskFilter" filterUnits="userSpaceOnUse" x="478.6" y="376.2" width="197.3" height="50.9">
				<feFlood  style="flood-color:white;flood-opacity:1" result="back"/>
				<feBlend  in="SourceGraphic" in2="back" mode="normal"/>
			</filter>
		</defs>
		<mask maskUnits="userSpaceOnUse" x="478.6" y="376.2" width="197.3" height="50.9" id="SVGID_5_">
			<g class="st2">
				<image style="overflow:visible;" width="202" height="56" xlink:href="824C1B3A.jpg"  transform="matrix(1 0 0 1 476 374)">
				</image>
			</g>
		</mask>
		<g class="st3">
			<linearGradient id="SVGID_6_" gradientUnits="userSpaceOnUse" x1="586.9034" y1="450.434" x2="571.5114" y2="333.2833">
				<stop  offset="0.1907" style="stop-color:#68CCEB;stop-opacity:0"/>
				<stop  offset="0.7587" style="stop-color:#CCEBF6"/>
			</linearGradient>
			<path class="st4" d="M675.9,376.2c0,28.1-44.2,50.9-98.6,50.9c-54.5,0-98.6-22.8-98.6-50.9"/>
		</g>
	</g>
	<linearGradient id="SVGID_7_" gradientUnits="userSpaceOnUse" x1="618.0969" y1="477.0885" x2="553.693" y2="313.3954">
		<stop  offset="0.198" style="stop-color:#839CAB"/>
		<stop  offset="0.325" style="stop-color:#88A2B1"/>
		<stop  offset="0.9239" style="stop-color:#9DBACD"/>
	</linearGradient>
	<path class="st5" d="M553.5,393.2c0,0,27.2,1.5,42.5-2.4c21.5-5.4,26-18.4,26-18.4s2.7,12.7-21.9,20.6c-11.1,3.5-25.5,2.9-35.3,1.9
		C558.1,394.2,553.5,393.2,553.5,393.2z M527.2,410.6c0,0,59.1,8.4,87.3-2c40.4-14.9,33.6-44.4,33.6-44.4s19.8,30.4-25.3,49.1
		C587.6,427.9,527.2,410.6,527.2,410.6z M497.3,360.1c0,0,10.8-12.2,28.2-17.6c25.1-7.7,59.5-4.3,59.5-4.3s-30-7.8-62,0.8
		C500.4,345.2,497.3,360.1,497.3,360.1z M560.3,380.8c8.1,0.3,12.3,9.5,21.2,6.6c6.4-2.1,6.2-7.7,11.1-10.6c4.5-2.7,9.7-0.1,15-0.3
		c3.6-0.1,10.4-2.2,9.8-5.7c-0.7-3.7-6.6-2-8.2-4.4c-1.2-1.8,9.1-7.4,4.4-10.8c-5.2-3.7-13.1,0.3-18.2,3c-6,3.1-11,6.3-18.2,8
		c-6.7,1.6-13.8,2.8-20.9,2.7c-6.1-0.1-12.3-1.2-18.5-0.8c-4.5,0.3-16.2,5.3-7.3,7.6c3.3,0.9,8.1-0.8,11,0.3
		c3.6,1.3-0.6,2.8-0.3,5.2c0.7,5.8,11.6,0.6,15.3-0.3C557.4,380.9,558.8,380.8,560.3,380.8z"/>
	<path id="wht_3_" class="st6" d="M617.8,325.7c-1.8-3.9-9.8,2.1-10.1,4.8C607.8,330.6,619.2,328.5,617.8,325.7z M631.3,342.2
		c2.6-5.5-8.9-1.2-10.1,0.1C622,341.6,629.4,346.3,631.3,342.2z M624,353.3c2.1-4.1-7.2-3.2-8.6-0.5
		C615.5,352.7,622.6,356,624,353.3z M598.7,324.3c1.2-1.8,2.3-3.5,1.9-5.6c-0.3-1.8-1.5-3.9-3.6-2.4c-1.8,1.2-1.2,4.9-1.4,6.9
		c-0.2,2.2-0.8,4.1-1.6,6.1C595.6,328.2,597.8,325.7,598.7,324.3z M545,341c-0.8-2.1-2-4.8-4.2-6.2c-1.6-1-5.7-2.2-6.7,0.2
		C532.8,337.7,542.2,340.4,545,341z M557.2,385.8c0,0,20.4,1.8,31.9-1.2c11.5-3,21.7-11.8,21.7-11.8s-3.9,10.2-18,14.4
		C578.6,391.4,557.2,385.8,557.2,385.8z M608.4,401.2c36.8-13.4,20.6-40.7,20.6-40.7s8.3,21.9-19.8,35.1c-23,10.8-59.3,7.2-59.3,7.2
		S577.8,412.3,608.4,401.2z M516,385.8c0,0-6.1-15,0-21.7c10.2-11.4,34.2-14.8,34.2-14.8s-26.9,1.2-37.9,12.6
		C501.3,373.3,516,385.8,516,385.8z"/>
	<path class="st6" d="M565.3,348c1.2,3.7-1.5,12.7-1.5,12.7s-3.2,3-5.5,2.2c-2.4-0.8-4.2-9.7-5-9.9c-1.8-2.4-5-5-8.1-4.7
		c-3.1,0.3-3.4,1.6-2.9,3.9c0.5,2.4,3.4,3.9,4.4,8.4s-15.9-1.3-19.3,2.1c-3.4,3.4,1.8,6.8,6.5,8.4c4.7,1.6,7.8-0.5,11.2,0
		c3.4,0.5-7.8,7.3-2.6,8.1s10.7-3.1,15.7-2.4c5,0.8,11.2,5.5,20.9,2.4s8.9-11.2,17.5-12.5c8.6-1.3,10.7,0.3,14.6-2.1
		s4.2-7.6,1.8-8.9c-1.2-0.6-4.4-0.9-7.3-1c-1.5-0.1-2-2.1-0.7-2.9c3.8-2.2,8.5-5.1,9.4-6.8c1.6-3.1,0.5-7.3-5-6.3
		c-5.5,1-10.9,13.4-19.2,16.1c-1.8,0.6-3.2-1.6-2.1-3c0,0,10.1-10.5,8-10.6c-2.1-0.1-13.7,8.9-17.6,8.4c-3.2-0.4-7-0.5-7.9-4.3
		c-0.1-0.4-0.1-0.8-0.4-1.1c-0.6-0.9-3.1-1.2-4.1-0.7C564.6,344.3,564.9,346.4,565.3,348z"/>
</g>
<path class="st7" d="M169.9,384.3H3.7c2.1,6.7,7.4,16,20.4,23.1c12,6.6,24.7,8.2,34.2,8.2c0.9,1.8,2.1,3.4,3.6,4.5
	c7.7,5.6,12.3,8.3,18.5,17c4.7,6.5,7.9,15,15.2,15.5c8.5,0.6,23.5-5.6,29.5-17.6c4.5-9.1,0.5-20.5-7.1-22.9
	c-4.1-1.3-6.4-3.7-4.4-3.6c6.4-0.2,21.2,8.9,25.3,12.3c5.8,4.9,17.6,1.9,26.4-10C175.5,396.5,173.9,388.6,169.9,384.3
	C170,384.3,169.9,384.3,169.9,384.3z"/>
<g>
	<g id="can_1_">
		
			<linearGradient id="SVGID_8_" gradientUnits="userSpaceOnUse" x1="593.5363" y1="322.6314" x2="634.6219" y2="322.6314" gradientTransform="matrix(0.9668 -7.616413e-02 7.677197e-02 0.9747 -38.1339 65.1428)">
			<stop  offset="0.1866" style="stop-color:#9F9E9A"/>
			<stop  offset="0.3436" style="stop-color:#9B9A96"/>
			<stop  offset="0.4923" style="stop-color:#908F8B"/>
			<stop  offset="0.6376" style="stop-color:#7D7C79"/>
			<stop  offset="0.78" style="stop-color:#62615F"/>
			<stop  offset="0.85" style="stop-color:#52514F"/>
		</linearGradient>
		<path class="st8" d="M599.8,325.9c0,0-0.3,3.7-0.9,5.2c-1.1,2.8-5.3,7.1-17.7,8.1c-12.4,1-17.5-3.4-18.7-4.9S560,328,560,328
			L599.8,325.9z"/>
		<path class="st9" d="M593.3,330.3c0,0,3.8-1.4,3.1,0.5c-0.6,1.9-5.5,5.7-10.9,6.4c-19.1,2.2-21.1-4.8-21.1-4.8s8.8,2.1,15.3,0.2
			C586.2,330.7,593.3,330.3,593.3,330.3z"/>
		
			<linearGradient id="SVGID_9_" gradientUnits="userSpaceOnUse" x1="592.0544" y1="294.0895" x2="636.2699" y2="294.0895" gradientTransform="matrix(0.9668 -7.616413e-02 7.677197e-02 0.9747 -38.1339 65.1428)">
			<stop  offset="4.595893e-02" style="stop-color:#E92A24"/>
			<stop  offset="0.1012" style="stop-color:#E22924"/>
			<stop  offset="0.1797" style="stop-color:#D02724"/>
			<stop  offset="0.2586" style="stop-color:#B62325"/>
			<stop  offset="0.4511" style="stop-color:#BD2425"/>
			<stop  offset="0.7247" style="stop-color:#CF2625"/>
			<stop  offset="1" style="stop-color:#E92A24"/>
		</linearGradient>
		<path class="st10" d="M554.5,277.6c0,0,2.8,3.7,3.6,11.6c0.1,0.8,6.7,8.8,6.7,9.6c0.1,0.9-7,2.5-6.9,3.5c0.2,1.5,3.9,6.4,4.1,8
			c1.5,13.1-2.3,16.8-2.2,17.7c0.3,1.9,7.8,7.9,21,6.9c13.2-1,18.9-7.2,18.7-9.3c0-0.6-4.5-3.9-4.5-9.4c0.1-3.5,4.9-8.2,4.3-12.5
			c-0.5-3.6-4.7-13.3-5-17c-0.9-9.8,0.3-13.1,0.3-13.1L554.5,277.6z"/>
		<path class="st11" d="M582,282.7l4.7,15l1.6,34.9c0,0,2.9-0.9,5.3-1.9c2.4-1,3.5-2.2,3.5-2.2l-4.5-13.3l3.5-9l-3.6-27.8
			c0,0-2.1,1.5-4.5,2.5C585.8,281.8,582,282.7,582,282.7z"/>
		<g>
			<defs>
				<path id="SVGID_10_" d="M576.6,281.6c12.8-1.2,19.1-4.6,18.3-8.6c-0.2-0.8-0.7-2.1-1.4-2.7c-3.2-2.6-8.8-3.8-20.6-2.8
					c-11.7,1-17,3.9-18.3,6.7c-0.4,0.7-0.2,1.9-0.1,2.5C555,279.4,562.6,282.9,576.6,281.6z"/>
			</defs>
			<clipPath id="SVGID_11_">
				<use xlink:href="#SVGID_10_"  style="overflow:visible;"/>
			</clipPath>
			
				<linearGradient id="SVGID_12_" gradientUnits="userSpaceOnUse" x1="620.0157" y1="248.5877" x2="648.2901" y2="283.5657" gradientTransform="matrix(0.9693 -7.642654e-02 0.1704 0.9648 -81.5737 69.7352)">
				<stop  offset="0.3128" style="stop-color:#E5E3DC"/>
				<stop  offset="0.756" style="stop-color:#908E8C"/>
			</linearGradient>
			<path class="st12" d="M576.7,281.9c12.8-1.2,19.1-4.7,18.3-8.9c-0.2-0.8-0.7-2.2-1.5-2.8c-3.2-2.8-8.8-4-20.7-3
				c-11.7,1-17,4-18.3,6.9c-0.4,0.8-0.2,2,0,2.6C555,279.5,562.7,283.1,576.7,281.9z"/>
			
				<linearGradient id="SVGID_13_" gradientUnits="userSpaceOnUse" x1="633.3202" y1="253.2163" x2="640.7354" y2="268.1864" gradientTransform="matrix(0.9693 -7.642654e-02 0.1704 0.9648 -81.5737 69.7352)">
				<stop  offset="0.1866" style="stop-color:#9F9E9A;stop-opacity:0.5"/>
				<stop  offset="0.3436" style="stop-color:#9B9A96;stop-opacity:0.6184"/>
				<stop  offset="0.4923" style="stop-color:#908F8B;stop-opacity:0.7304"/>
				<stop  offset="0.6376" style="stop-color:#7D7C79;stop-opacity:0.8399"/>
				<stop  offset="0.78" style="stop-color:#62615F;stop-opacity:0.9472"/>
				<stop  offset="0.85" style="stop-color:#52514F"/>
			</linearGradient>
			<path class="st13" d="M589.7,272.5c0.5-1.5-0.2-2.4-4-3.2c-7.1-1.4-17.4,0.9-17.4,0.9s10.8-1.1,16.1,0.5c3.7,1.1,0.7,4.2,0.7,4.2
				S589.3,273.8,589.7,272.5z"/>
			
				<linearGradient id="SVGID_14_" gradientUnits="userSpaceOnUse" x1="636.9345" y1="260.0103" x2="645.8299" y2="271.0147" gradientTransform="matrix(0.9693 -7.642654e-02 0.1704 0.9648 -81.5737 69.7352)">
				<stop  offset="0.3128" style="stop-color:#E5E3DC"/>
				<stop  offset="0.756" style="stop-color:#FFFFFF"/>
			</linearGradient>
			<path class="st14" d="M591,270.3c0,0,2.5,2.7-3.3,4.9c-5.8,2.2-13.1,3.7-13.1,3.7s2.6,0.7,10.6-1.2c4.2-1,7.3-2.7,7.8-4.9
				C593.3,271.4,591,270.3,591,270.3z"/>
			
				<linearGradient id="SVGID_15_" gradientUnits="userSpaceOnUse" x1="608.262" y1="263.0338" x2="635.5647" y2="263.0338" gradientTransform="matrix(0.9693 -7.642654e-02 0.1704 0.9648 -81.5737 69.7352)">
				<stop  offset="0.1876" style="stop-color:#9F9E9A"/>
				<stop  offset="0.7343" style="stop-color:#FFFFFF;stop-opacity:0"/>
			</linearGradient>
			<path class="st15" d="M557.5,276.5c-0.6-0.7-2-2.4,1.1-4.2c6.8-4,19.2-5.5,19.2-5.5l-12.4-0.1l-12.3,5.4l0.2,8.1l16.2,4.6l-2-5
				C567.6,280,559.2,278.4,557.5,276.5z"/>
			<path class="st16" d="M587.8,271.9c1.1,0.5-1.9,3.1-4.1,3.4c-1.3,0.2-8.7-1.9-7-2.8S586.7,271.4,587.8,271.9z"/>
			<path class="st17" d="M565.5,277.9c0,0-4.8-0.5-5-2.6c-0.2-1.6,1.3-2.6,4.8-3.6c2.9-0.8,6.6-1.2,6.6-1.2s-6,2.1-7.1,3.9
				S565.5,277.9,565.5,277.9z"/>
		</g>
	</g>
	<path class="st18" d="M559,288.9c0,0,5.8,13.7,17.5,10.6c0,0-4.3-1.3-8.6-3.8C564.1,293.4,560.5,289.8,559,288.9z"/>
	<path class="st18" d="M559,303.2c0,0,3.6,5.8,8.2,8.9c3.2,2.1,7.3,1.9,9.2,1.8c0,0-4.3-1.8-8.6-4.4
		C564.1,307.2,560.4,304.1,559,303.2z"/>
</g>
<g>
	<path class="st19" d="M28.7,410.8c0,0,191-98.3,191.4-98.6c4.7-2.4,9.1-1.3,13,2.1c4.7,4,9,9.1,10.7,15.3
		c1.4,5.3,2.2,12.2-0.9,17.1c-0.6,1-52.6,27.6-72.1,37.9c-38.8,20.5-77.6,41.1-116.4,61.6c-3.4,1.8-6.8,3.6-10.2,5.4l-2.3-5.9
		L28.7,410.8z"/>
	<path class="st20" d="M46.3,427.4c4.3,11.3,3.4,22.1-2.1,24.1c-5.4,2.1-13.3-5.4-17.6-16.6s-3.4-22.1,2.1-24.1
		C34.1,408.7,42,416.1,46.3,427.4z"/>
	<path class="st21" d="M43.2,428.6c0,0,7.7,29.7-8.5,16.5C34.7,445.1,54.5,462.9,43.2,428.6z"/>
	<g>
		<path class="st22" d="M126.8,325.3c0,0,26.6,6.6,31,13.6c3.2,5.1,14.9,15.7,7.5,19.2c-2.1,1-28,1.1-28,1.1l-13.1-19.7L126.8,325.3
			z"/>
		<path class="st23" d="M75.9,370.4c0,0-17.8-20.9-36.1-23.1c3.3,5.6,2.9,10.5,1.9,10.6c-2.6,0.5-4-17.1-14-23.9
			c-0.3,4.5-0.8,7.3-2.4,6.6c-1.6-0.7-9.8-6.5-2.8-25.6c-28.4,26.6-5.7,53.8-7.4,56.5c-1.7,2.7-5.1-3.9-8.5-7.4
			c0,0-1.4,19.4,21.8,32.2s49.2,6.8,49.2,6.8L75.9,370.4z"/>
		<polygon id="XMLID_15_" class="st24" points="53.2,353.7 44,363.4 43.1,373.3 37.6,371.8 38.7,378.8 32.6,381.5 31.8,397.2 
			22.7,391.4 28.4,376.9 34.4,374.6 34.6,368.5 34.4,361.1 38.3,363.1 38,356.5 43.2,359.9 45,349.8 		"/>
		<path id="XMLID_14_" class="st24" d="M64.4,360.4l-2.4,3.7l2.5,5.1l-5.4,6.1c0,0-0.4,8.4-0.7,8.2l-5-5l0.4,6.7l-4.4,4.2l2.2,6.8
			l-1.6,2.4l6.4,4.5l-10.6-1l-2.9-2.8l2.9-5.6l-3.2-5.5l6.6-6.4l-0.4-11.1l5.2,2.6l4.2-5l-1.2-4.9l2.2-7.3L64.4,360.4z"/>
		<path id="XMLID_13_" class="st22" d="M62.5,333.3c-21.3-7.5-55.4-36.1-29.9-85.3c19.7-38,78.7-42,107.2-19.4
			c27.6,21.9,29.6,65.1,0.8,91.3c-1.9,1.7-13.1,9.2-18,11.5C103,340.7,81.1,339.9,62.5,333.3z"/>
		<path id="XMLID_8_" class="st22" d="M69,224.2c0,0-48.1-35.1-30.4,22.3"/>
		<path id="XMLID_7_" class="st24" d="M43.3,244.9c-4.6-4.2-6.7-21.7-0.3-24.9c0,0,3.2-0.8,5.5,0.7c0,0,16.6,10.3,10.1,19
			C53,247.1,46.3,247.6,43.3,244.9z"/>
		<path id="XMLID_6_" class="st24" d="M43.1,244.8l0.4-0.4c-0.9-0.8-1.7-2.2-2.4-4c-0.7-1.8-1.2-3.9-1.5-6.1c-0.4-3-0.4-6.1,0.2-8.6
			c0.3-1.3,0.7-2.4,1.2-3.3c0.6-0.9,1.2-1.6,2-2l-0.3-0.5l0.1,0.5l0,0c0,0,0.3-0.1,0.7-0.1c0.5-0.1,1.2-0.1,2,0
			c0.8,0.1,1.6,0.3,2.3,0.8l0,0l0,0l0,0c0.3,0.2,2.9,1.9,5.6,4.3c1.3,1.2,2.6,2.7,3.7,4.2c1,1.5,1.8,3.1,2,4.7
			c0.2,1.6-0.1,3.3-1.4,4.9c-3.2,4.2-6.7,6.1-9.5,6.5c-2.1,0.3-3.8-0.3-4.9-1.3L43.1,244.8l-0.4,0.4c1.4,1.3,3.5,1.9,5.8,1.6
			c3.2-0.4,6.9-2.5,10.3-6.9c1.4-1.8,1.8-3.8,1.6-5.7c-0.2-1.9-1.1-3.7-2.3-5.4c-1.7-2.5-4.1-4.6-6-6.2c-1.9-1.5-3.4-2.5-3.5-2.5
			l-0.3,0.5l0.3-0.5c-0.9-0.6-1.9-0.9-2.8-1c-0.9-0.1-1.7,0-2.3,0c-0.5,0.1-0.8,0.1-0.8,0.1l-0.1,0l-0.1,0c-1,0.5-1.8,1.4-2.5,2.4
			c-0.9,1.6-1.5,3.6-1.7,5.7c-0.2,2.2-0.2,4.6,0.1,6.9c0.3,2.3,0.8,4.5,1.5,6.4c0.7,1.9,1.6,3.5,2.7,4.5L43.1,244.8z"/>
		<path id="XMLID_5_" class="st24" d="M35.3,262.3c0,0-16.9,46.7,29.8,64.4C65.1,326.7,26.6,302.8,35.3,262.3z"/>
		<path id="XMLID_4_" class="st22" d="M110.9,221.7c0,0,37-46.7,35.2,13.4"/>
		<path id="XMLID_3_" class="st24" d="M141.2,228.4c3.3-5.3,0.8-19.8-6.3-21.2c0,0-3.3,0.1-5.1,2.2c0,0-13.4,11.5-4.8,18.1
			C132.5,233,139.1,231.8,141.2,228.4z"/>
		<g>
			<path id="XMLID_2_" class="st25" d="M148.6,267.8c6.7,17.3-1.2,37.1-18.1,49.4c-4,3-8.6,5.5-13.6,7.4c-20,7.8-41.1,3.9-53.5-8.2
				c-0.4-0.4-0.7-0.7-1-1.1c-3.1-3.3-5.5-7.1-7.2-11.4c-8.3-21.4,6.6-47.8,32.4-57.8c4.8-1.9,9.6-3,14.4-3.5
				C122.7,240.4,141.8,250.4,148.6,267.8z"/>
			<path class="st26" d="M95.8,306.9c0.9,3.8-0.4,7.5-3,8.1c-2.6,0.6-5.4-2-6.3-5.8c-0.9-3.8,0.4-7.5,3-8.1
				C92,300.4,94.9,303,95.8,306.9z"/>
			<path class="st26" d="M135.4,297.2c0.5,3.9-1.1,7.4-3.7,7.7c-2.6,0.4-5.2-2.5-5.7-6.4c-0.5-3.9,1.1-7.4,3.7-7.7
				C132.3,290.4,134.8,293.3,135.4,297.2z"/>
			<path class="st26" d="M69.3,320.9c0,0-14-25.8-7.5-29c0,0,5.2,3.3,7.5,2.4c0.4-0.2-6.6-13.3-0.7-20.3c0,0,30.4,0.7,31.2-6.5
				c-1.1-0.2-12.2-0.3-13.4-4.7c-0.6-2.5,20.2-9.7,36.5,7.1c1.8,0.3,2.8-4.3,1.3-10.1c-2.7-10.8,14.8,14.4,15.1,14.8
				c0.3,0.4,2-1.4,2.8-4.6c0.8-3.2,7.2,16.3,7.5,18.4c0.3,2.1,3.8-10.6-1.9-23.3c-5.7-12.6-22.3-22.1-33.9-22.6
				c-11-0.4-29.8-1.6-50.2,20.1c-21.7,23.1-8.2,44.7-5.9,48.1C60.1,314.1,68.1,321.1,69.3,320.9z"/>
		</g>
		
			<linearGradient id="SVGID_16_" gradientUnits="userSpaceOnUse" x1="458.3526" y1="315.6304" x2="458.3603" y2="315.6609" gradientTransform="matrix(-0.9849 0.1732 0.1732 0.9849 534.6858 -42.7589)">
			<stop  offset="0" style="stop-color:#8D735E"/>
			<stop  offset="0.4747" style="stop-color:#8B715D"/>
			<stop  offset="0.7176" style="stop-color:#836B58"/>
			<stop  offset="0.9075" style="stop-color:#766151"/>
			<stop  offset="1" style="stop-color:#6C594B"/>
		</linearGradient>
		<path class="st27" d="M138,347.5C137.8,347.6,137.8,347.4,138,347.5L138,347.5z"/>
		
			<linearGradient id="SVGID_17_" gradientUnits="userSpaceOnUse" x1="479.4132" y1="330.5586" x2="495.7624" y2="394.9938" gradientTransform="matrix(-0.9849 0.1732 0.1732 0.9849 534.6858 -42.7589)">
			<stop  offset="0" style="stop-color:#8D735E"/>
			<stop  offset="0.4747" style="stop-color:#8B715D"/>
			<stop  offset="0.7176" style="stop-color:#836B58"/>
			<stop  offset="0.9075" style="stop-color:#766151"/>
			<stop  offset="1" style="stop-color:#6C594B"/>
		</linearGradient>
		<path class="st28" d="M60.5,375.8c1.2-15.7,3.9-32.3,4.8-33.4c0,0,27.4-5.7,35.8-9.3c21.6-9.3,40.7-16.2,40.7-16.2
			c-20.4,7.2-3.6,30.8-3.6,30.8c-0.1,0-0.1,0-0.1,0c0.5,0.5,3.3,8.1,11,19c1.8,2.5,5.4,4,10.3,2.9c5.9-1.4,11-0.4,14.9,3.9
			c3.9,4.3,5.6,12.1-4.9,26.3c-8.7,11.9-20.5,14.9-26.4,10c-4.1-3.5-18.9-12.6-25.3-12.3c-2-0.1,0.3,2.3,4.4,3.6
			c7.7,2.4,11.7,13.8,7.1,22.9c-6,12-21,18.2-29.5,17.6c-7.2-0.5-10.5-9-15.2-15.5c-6.3-8.7-10.8-11.4-18.5-17
			S59.6,386.7,60.5,375.8z"/>
		<path id="XMLID_1_" class="st24" d="M37.6,351.6l-6,2c0,0-2,13.8-2.5,12.8l-2.4-3.7l-1.9,6.6l-4.2,0.9l-0.1,10.7l-6-14.3l6.8-4.3
			l2.6-9.9l4.1,3.7l-0.3-10.4l4,1.6l1.5-6.4L37.6,351.6z"/>
		<path class="st24" d="M131.8,326c0,0-16.2,8.3-34.1,8.7C97.7,334.8,115.1,338.4,131.8,326z"/>
	</g>
	
		<ellipse transform="matrix(0.9849 -0.1732 0.1732 0.9849 -61.5335 25.2289)" class="st29" cx="113.8" cy="365.1" rx="20.4" ry="22.7"/>
	<path class="st30" d="M161.9,319.3c10.9-0.2,11.2,17.4,11.2,17.4s-0.1,8.2-7.2,13.2c-7,5-17.2,6.4-24.5-2.8
		c-9.9-12.5,3.3-24.9,17-22.9C158.9,324.4,156.6,319.4,161.9,319.3z"/>
	<path class="st22" d="M92.1,358.5l-9-26.5c0,0-11.4-7.5-20.6-3.7c-20.3,8.4-21.8,40.7-14.2,47.3c8.4,7.3,26.4,4.8,30.1,2.5
		c2.6-1.6,3.9-13.5,4.4-20.3L92.1,358.5z"/>
	<path class="st23" d="M174.2,373.3c4.7,2.4,4.4,15.6-3.4,23.9s-14.5,15-22,14C141.2,410.2,169.2,370.8,174.2,373.3z"/>
	<path class="st23" d="M126.8,404.4c4.6,2.9,9.6,17.7-5.5,29.2c-15.1,11.4-24.1,7.5-25.7,6.4s-4-9.4,6.8-21.5
		C107.8,412.4,121.6,401.2,126.8,404.4z"/>
	
		<ellipse transform="matrix(2.682405e-02 -0.9996 0.9996 2.682405e-02 -287.0291 426.091)" class="st24" cx="75.3" cy="360.5" rx="8.8" ry="14.5"/>
	<g id="fish_pole">
		<path id="line_1_" class="st31" d="M211.6,304.6l108.9-134.9l91.1-75l120.9-84c0,0,14.6,128,47.4,263"/>
		<path d="M214.6,299.2l3.3,3.4l1.6,20.5c0,0-13.9,16.3-19.9,21.1c-10.3,8.3-33.1-14.2-24.9-23.3c5.1-5.7,4.2-4.1,4.2-4.1l0.9-16.2
			l4.3-5.4l3.5,12.4l8.5-8.9L214.6,299.2z"/>
		
			<linearGradient id="SVGID_18_" gradientUnits="userSpaceOnUse" x1="568.9504" y1="294.3986" x2="540.3371" y2="321.99" gradientTransform="matrix(-0.9986 5.355079e-02 5.355079e-02 0.9986 736.469 -16.8799)">
			<stop  offset="4.186255e-02" style="stop-color:#000000"/>
			<stop  offset="0.3216" style="stop-color:#767576"/>
			<stop  offset="0.8975" style="stop-color:#000000"/>
		</linearGradient>
		<path class="st32" d="M193.9,301c-2.4,2.7-18.9,21.1-18.9,21.1c2.3,0.6,7.7,1.6,14,7.7c6.2,6.1,10,14.4,10,14.4s16.5-17.6,19-20
			c2.4-2.4-1.4-12-7.9-17.8C203.6,300.5,196.3,298.3,193.9,301z"/>
		<polygon class="st33" points="203.8,302 183.1,324.9 186,327.1 207,304.2 		"/>
		
			<ellipse transform="matrix(0.7029 -0.7113 0.7113 0.7029 -184.9994 229.6229)" class="st33" cx="182.4" cy="336.3" rx="1.7" ry="4.5"/>
		<path d="M177.3,318.1c0,0-21.3-2.8-23.3-3.8c-2.1-1-3.8-9.6-3.8-9.6l-3.9-0.1c0,0,2.1,11.2,5.1,13.1c2.9,1.9,23.1,4.2,23.1,4.2
			L177.3,318.1z"/>
		<path class="st34" d="M198,268.7c1.2-1,69.7-75.1,150.3-140.1C431.1,61.7,526.1,3.9,526.1,3.9l2-0.1c0,0-94.1,58.9-176.4,127
			c-80.6,66.7-149.4,142.6-150.4,142.9C199.4,274.3,194.6,271.4,198,268.7z"/>
		<g>
			<path class="st35" d="M197.1,268.5c0,0,18.4-18.3,20.1-19.8c1.4-1.2,5.7,2.8,4.5,4.1s-19.4,21-19.4,21L197.1,268.5z"/>
			<path class="st35" d="M296.2,173c1-0.8,4.3,2.9,3.4,3.5c-0.9,0.7,15.4-14.1,16.7-15.2c1.2-1.1-1.7-4.8-3.4-3.4
				C311.1,159.3,295.2,173.8,296.2,173z"/>
			<path class="st35" d="M389.2,96.6c1.1-0.7,3.2,2.1,2.2,2.8s16.6-12.6,17.3-13.1s-0.7-3.2-2-2.4C405.6,84.7,388.1,97.3,389.2,96.6
				z"/>
			<path class="st35" d="M509.6,14.2l0.7,1.2c0,0,17.5-11.3,17.9-11.6s-0.2-0.9-0.7-0.6C527,3.5,509.6,14.2,509.6,14.2z"/>
			<path class="st36" d="M529.4,13.7c-1-0.5-1.9-1.4-2.6-2.4c-0.9-1.4-1.2-3-0.8-4.4c0.2-1,0.8-1.8,1.6-2.3c0.8-0.5,1.8-0.6,2.8-0.4
				c1.4,0.3,2.7,1.4,3.5,2.8l0,0c0.9,1.4,1.2,3,0.8,4.4c-0.2,1-0.8,1.8-1.6,2.3c-0.5,0.3-1.1,0.5-1.6,0.5
				C530.8,14.1,530.1,14,529.4,13.7z"/>
			<polygon class="st37" points="512.9,14.7 532.4,7.3 532.2,6.7 512.7,14.1 			"/>
			<path class="st36" d="M410.6,96.9c-1.1-0.5-2.1-1.5-2.8-2.6c-0.7-1.2-1.1-2.5-1-3.7c0-1.5,0.7-2.8,1.9-3.4
				c0.8-0.5,1.9-0.7,2.9-0.4c1.5,0.4,2.8,1.4,3.7,3c1.6,2.7,1.3,5.8-0.8,7.1c-0.5,0.3-1.1,0.5-1.7,0.5
				C412.1,97.4,411.3,97.2,410.6,96.9z"/>
			<polygon class="st37" points="392.6,99.6 413.8,90 413.5,89.5 392.3,99 			"/>
			<path class="st36" d="M320.4,172.1c-1.6-0.1-3.1-1-4.4-2.4c-2.2-2.5-2.3-5.8-0.4-7.4c1.9-1.7,5.1-1,7.3,1.5l0,0
				c2.1,2.5,2.3,5.8,0.4,7.4c-0.6,0.6-1.5,0.9-2.3,0.9C320.7,172.1,320.6,172.1,320.4,172.1z"/>
			<path class="st37" d="M530.2,12.1c-0.7-0.3-1.4-1-1.9-1.8c-0.6-1-0.9-2.2-0.6-3.1c0.1-0.6,0.4-1,0.9-1.2c0.4-0.3,0.9-0.3,1.5-0.2
				c0.9,0.2,1.8,1,2.4,2l0,0c0.6,1,0.9,2.2,0.6,3.1c-0.1,0.6-0.4,1-0.9,1.2c-0.2,0.1-0.5,0.2-0.8,0.2
				C531,12.4,530.6,12.3,530.2,12.1z M528.9,6.5c-0.3,0.2-0.5,0.5-0.6,0.9c-0.2,0.8,0,1.7,0.6,2.6c0.4,0.7,1,1.2,1.6,1.5
				c0.6,0.3,1.1,0.3,1.5,0.1c0.3-0.2,0.5-0.5,0.6-0.9c0.2-0.8,0-1.7-0.6-2.6l0,0c-0.5-0.9-1.3-1.5-2.1-1.7c-0.2,0-0.3-0.1-0.5,0
				C529.2,6.4,529,6.4,528.9,6.5z"/>
			<path class="st37" d="M411.3,95.3c-0.8-0.4-1.5-1.1-2-1.9c-0.5-0.9-0.8-1.8-0.8-2.7c0-0.9,0.4-1.6,1-2c0.5-0.3,1-0.3,1.6-0.2
				c1,0.2,2,1.1,2.7,2.2l0,0c1.1,1.8,1,4-0.2,4.7c-0.3,0.2-0.6,0.3-0.9,0.3C412.3,95.6,411.8,95.5,411.3,95.3z M409.9,89.2
				c-0.4,0.3-0.7,0.8-0.7,1.5c0,0.8,0.2,1.6,0.7,2.4c0.5,0.8,1.1,1.4,1.8,1.7c0.6,0.3,1.2,0.3,1.7,0.1c0.9-0.6,1-2.3,0-3.9l0,0
				c-0.6-1-1.4-1.7-2.3-1.9c-0.2,0-0.4-0.1-0.5-0.1C410.3,89,410,89.1,409.9,89.2z"/>
			<path class="st37" d="M320.5,170.3c-1.1-0.1-2.3-0.8-3.2-1.8c-1.5-1.7-1.7-3.9-0.6-5c1.2-1,3.3-0.4,4.8,1.3l0,0
				c1.5,1.7,1.7,3.9,0.6,5c-0.3,0.3-0.8,0.5-1.3,0.5C320.7,170.3,320.6,170.3,320.5,170.3z M321.1,165.3c-1.3-1.5-3.1-2-3.9-1.3
				c-0.9,0.8-0.6,2.6,0.7,4.1c0.8,0.9,1.8,1.5,2.7,1.6c0.5,0,0.9-0.1,1.2-0.3C322.6,168.6,322.3,166.8,321.1,165.3L321.1,165.3z"/>
			<polygon class="st37" points="300.4,176.7 321.3,164.2 321,163.7 300.1,176.2 			"/>
		</g>
		<path class="st38" d="M90.4,370.1c10.7-11.4,103.6-100.1,106.1-101.8c2.5-1.7,8.4,3.7,6.5,6.3c-1,1.4-28.7,33.3-55.3,60.5
			c-23,23.5-41.9,42.8-47.9,45.2C92.9,383,84.4,376.4,90.4,370.1z"/>
		<polygon class="st39" points="176.9,286.5 185.3,294.3 178.2,301.9 170.1,293.3 		"/>
	</g>
	
		<ellipse transform="matrix(2.682405e-02 -0.9996 0.9996 2.682405e-02 -289.235 426.7523)" class="st22" cx="74.6" cy="361.9" rx="8.8" ry="14.5"/>
	<path class="st30" d="M69.9,381.3c0.6,0.6,1.5,1.4,3.3,2.3c0.6,0.3,0.6,1.1,0.1,1.4c-1.3,0.8-3,2.3-2,4.6
		c1.5,3.6,13.9,9.3,23.4-0.5s6.1-23.4,1.3-27c-3.8-2.8-10.5-5.2-13.3-6.1c-0.6-0.2-1.1,0.3-1,0.9c0.5,2.3,1.1,7.5-1.5,12.2
		c-2.6,4.8-6.5,9.6-10.1,11.2C69.7,380.3,69.6,380.9,69.9,381.3z"/>
	<path class="st30" d="M137.6,344c3.2,6.6,12.3,14.1,23.9,7.8c8.3-4.5,11.8-13.7,8.6-20.3s-9.5-7.9-18.1-3.8
		C143.6,331.8,134.5,337.4,137.6,344z"/>
</g>
<g id="flowers_9_">
	<path class="st40" d="M890.9,373.2c-2.2-1.1-5.6-4.5-8.4-6.2c2.3,0.5,4.8,0.5,6.9,1.4c0.6-4.3-0.7-9.5-1.2-13.7
		c2.2,3.4,5.2,7.1,7.5,10.9c3.4-3,6.6-7.4,10-10.7c-1.9,5.5-2.4,11.6-4.4,16.9C898.6,372.2,892.9,374.2,890.9,373.2z M910.9,380.6
		c3.5-4,8.5-6.6,13.3-8.9c-2.9,3.9-5.1,8.3-6.6,12.9c5.3,0,17.2,0.8,21.4,4.2c0.3-3.1,1.2-6.2,1.5-9.2c3.5,2.7,7,5.3,10,8.5
		c0-2.5-0.2-5.8-0.1-8.4c0,0-0.1,0.2-0.1,0.1c4.9-2.9,13.7-5,19.5-5.1c0.5-10.7,1.2-11.1,10.4-11.9c1.5-5.4-0.8-13.4,2.8-18.1
		c-4,3.5-9.8,6.2-11.8,11.5c-1.7-1.4-5.2-6.3-5.2-9c-3,1.5-5.3,4.6-7.9,6.6c-1.5-3.8-1.4-7.3-1.6-11.2c-2,4-5.1,9-5.6,13.4
		c0,0,0,0,0,0c-2.7-2.1-6-3.2-8.6-5.3c0,2.2,1.2,4.4,1.9,6.4c-2.9,1.2-5.9,1.2-8.5,3.3c0.3-4.5,1.1-10.7,3.3-14.5
		c-3.3,1.8-8.3,5.7-9,9.8c-2.4-2.4-4.4-5.2-6.7-7.7c-0.5,2.2-1,4.4-1,6.8c-3.6-1-7.4-0.8-10.8-1.6c3,2.6,5.6,6.2,8.8,9
		c-2.3,0.6-4.2,1.9-6.1,3.1c-1.8-2.7-3.6-5.3-4.2-8.2c-0.3,5.6-3.1,10.8-3.3,16.5C907.4,374.2,910.5,378.4,910.9,380.6z"/>
	<path class="st41" d="M925.9,371.8c-2.5-2.6-2.4-4.6-2.3-8.1c1.1,1.3,2.8,2.3,3.7,3.9c0.7,1.3,1,5.4-1.6,3.9 M952.6,365.7
		c1.4,2.7,3.7,0,4-1.8c0.4-2-0.3-5.1-0.8-6.9c-1.6,2.2-3.3,3.9-3.8,6.6c-1.4-1.4-3.2-2.2-4.5-3.7c0.6,1.6-0.1,3.5,0.8,5
		c0.9,1.5,2,1.7,3.4,2.5C952.2,366.7,952.7,366.5,952.6,365.7z M899,363.2c2,0.2,2.8-2.2,1.8-4c-0.8-1.5-2.5-2.6-3.7-3.7
		c0,2.2-0.6,7.2,2.2,7.8 M885.2,361.6c1.4-1.8-1.7-3.7-3.1-4.7c-0.3,1.3-0.9,3.2-0.1,4.4c0.7,1.2,2.4,1.9,3.2,0.5"/>
	<path class="st42" d="M934.9,363c-3.3-2.3,0.7-7.2,2.4-9.2C937,355,939,365.7,934.9,363z M940.9,368.7c2.9-2.1,2.4-6.4,1.7-9.4
		C940.8,361.8,935.4,367.6,940.9,368.7z M961.8,352.3c4-0.7,0.7-5.8,0-7.8c-1.4,2.4-3.3,5.8-0.2,7.8 M913.5,367.5
		c4.7,1,2.5-6.9,1.2-8.9c-1.4,2.8-4,6.6-1,9.2"/>
</g>
</svg>
